<svg width="640" height="520" viewBox="0 0 640 520" xmlns="http://www.w3.org/2000/svg">
  <defs>
    <linearGradient id="bg" x1="0%" y1="0%" x2="100%" y2="100%">
      <stop offset="0%" stop-color="#d0ebff"/>
      <stop offset="100%" stop-color="#f5f7ff"/>
    </linearGradient>
    <linearGradient id="plane" x1="0%" y1="0%" x2="100%" y2="0%">
      <stop offset="0%" stop-color="#0067ff"/>
      <stop offset="100%" stop-color="#00b4d8"/>
    </linearGradient>
  </defs>
  <rect width="640" height="520" rx="40" fill="url(#bg)" />
  <circle cx="520" cy="120" r="70" fill="rgba(255,255,255,0.6)" />
  <circle cx="460" cy="80" r="50" fill="rgba(255,255,255,0.4)" />
  <path d="M120 360c60-40 160-60 260-40s140 40 160 60v80H120z" fill="#fff" opacity="0.8"/>
  <path d="M80 320c80-60 220-90 360-60s180 50 200 70v110H80z" fill="#dfe8ff" opacity="0.7"/>
  <g transform="translate(120 180)">
    <rect x="0" y="80" width="120" height="160" rx="16" fill="#fff" stroke="#d0d7f7" stroke-width="2"/>
    <rect x="150" y="40" width="120" height="200" rx="16" fill="#fff" stroke="#d0d7f7" stroke-width="2"/>
    <rect x="300" y="0" width="120" height="240" rx="16" fill="#fff" stroke="#d0d7f7" stroke-width="2"/>
    <rect x="24" y="110" width="72" height="20" rx="10" fill="#e8edff"/>
    <rect x="24" y="140" width="72" height="20" rx="10" fill="#e8edff"/>
    <rect x="24" y="170" width="72" height="20" rx="10" fill="#e8edff"/>
    <rect x="174" y="70" width="72" height="24" rx="12" fill="#e8edff"/>
    <rect x="174" y="110" width="72" height="24" rx="12" fill="#e8edff"/>
    <rect x="174" y="150" width="72" height="24" rx="12" fill="#e8edff"/>
    <rect x="174" y="190" width="72" height="24" rx="12" fill="#e8edff"/>
    <rect x="324" y="30" width="72" height="26" rx="13" fill="#e8edff"/>
    <rect x="324" y="70" width="72" height="26" rx="13" fill="#e8edff"/>
    <rect x="324" y="110" width="72" height="26" rx="13" fill="#e8edff"/>
    <rect x="324" y="150" width="72" height="26" rx="13" fill="#e8edff"/>
    <rect x="324" y="190" width="72" height="26" rx="13" fill="#e8edff"/>
  </g>
  <g transform="translate(260 120)">
    <path d="M0 40l220 50c10 2 20-8 18-18l-10-44c-2-10-12-16-22-14L4 32c-8 2-8 14 0 16z" fill="url(#plane)"/>
    <path d="M20 36c-6-6-18-18-27-24-8-6-18-8-26-4-6 4-7 12-1 17l40 29z" fill="#00b4d8"/>
    <path d="M210 98l34 30c6 6 16 4 20-2l12-18c4-6 0-14-8-15z" fill="#00b4d8"/>
    <circle cx="90" cy="47" r="8" fill="#fff" opacity="0.7"/>
    <circle cx="120" cy="54" r="8" fill="#fff" opacity="0.7"/>
  </g>
</svg>

